<svg width="238" height="238" viewBox="0 0 238 238" fill="none" xmlns="http://www.w3.org/2000/svg">
    <path d="M119 19.8333C173.768 19.8333 218.167 64.2317 218.167 119C218.167 173.768 173.768 218.167 119 218.167C64.2317 218.167 19.8333 173.768 19.8333 119C19.8333 64.2317 64.2317 19.8333 119 19.8333ZM119 34.7083C72.4469 34.7083 34.7083 72.447 34.7083 119C34.7083 165.553 72.4469 203.292 119 203.292C165.553 203.292 203.292 165.553 203.292 119C203.292 72.447 165.553 34.7083 119 34.7083ZM153.175 83.2707L154.009 83.9909C156.65 86.6314 156.89 90.7633 154.729 93.6749L154.009 94.5091L129.522 119L154.009 143.491C156.65 146.131 156.89 150.263 154.729 153.175L154.009 154.009C151.369 156.65 147.237 156.89 144.325 154.729L143.491 154.009L119 129.522L94.509 154.009C91.8685 156.65 87.7366 156.89 84.825 154.729L83.9908 154.009C81.3503 151.369 81.1103 147.237 83.2707 144.325L83.9908 143.491L108.478 119L83.9908 94.5091C81.3503 91.8686 81.1103 87.7367 83.2707 84.8251L83.9908 83.9909C86.6313 81.3504 90.7632 81.1104 93.6748 83.2707L94.509 83.9909L119 108.478L143.491 83.9909C146.131 81.3504 150.263 81.1104 153.175 83.2707Z" fill="#F38383"/>
</svg>
