<svg width="33" height="34" viewBox="0 0 33 34" fill="none" xmlns="http://www.w3.org/2000/svg">
    <path fill-rule="evenodd" clip-rule="evenodd" d="M19.9725 0.14043C18.9272 -0.268805 17.7482 0.246769 17.3389 1.292L13.0674 12.202C12.6581 13.2473 13.1737 14.4263 14.2189 14.8356C15.2642 15.2448 16.4432 14.7292 16.8525 13.684L21.124 2.77397C21.5333 1.72874 21.0177 0.549665 19.9725 0.14043ZM18.2437 19.1644C17.1984 18.7552 16.0194 19.2708 15.6101 20.316L11.3385 31.226C10.9293 32.2712 11.4449 33.4503 12.4901 33.8596C13.5354 34.2688 14.7144 33.7532 15.1237 32.708L19.3952 21.798C19.8045 20.7527 19.2889 19.5736 18.2437 19.1644ZM31.064 17.8665C32.12 18.247 32.6675 19.4116 32.2869 20.4676C31.9064 21.5236 30.7418 22.0712 29.6858 21.6906L18.6633 17.7182C17.6073 17.3376 17.0597 16.1731 17.4403 15.1171C17.8209 14.0611 18.9855 13.5135 20.0415 13.8941L31.064 17.8665ZM14.9676 18.7807C15.3481 17.7247 14.8006 16.5601 13.7446 16.1795L2.72209 12.2071C1.66608 11.8266 0.501505 12.3741 0.120932 13.4301C-0.25964 14.4861 0.287908 15.6507 1.34391 16.0313L12.3664 20.0037C13.4224 20.3842 14.587 19.8367 14.9676 18.7807Z" fill="#CDD6DF"/>
</svg>
