<svg width="251" height="81" viewBox="0 0 251 81" fill="none" xmlns="http://www.w3.org/2000/svg">
<path d="M209.073 50.9268V35.7805L218.622 29.7439L230.585 37.5366L209.073 50.9268Z" fill="#F38000"/>
<path d="M220.159 2.63416L239.915 24.5854L220.159 11.8537V2.63416Z" fill="#F38000"/>
<path d="M209.073 6.36584L244.195 29.0854L231.573 36.9878L209.073 22.5V6.36584Z" fill="#F38000"/>
<path d="M38.5435 34C37.7542 34 36.9835 34.196 36.235 34.577C35.4866 34.958 34.8722 35.3933 34.3824 35.8831C33.838 36.4275 33.3497 37.0951 32.9143 37.898C32.4788 38.7007 32.1034 39.5511 31.7905 40.4492C31.4775 41.3473 31.235 42.2677 31.0717 43.193C30.9083 44.1182 30.8288 44.9752 30.8288 45.7646C30.3661 45.7646 29.8843 45.758 29.381 45.7442C28.8774 45.7306 28.3824 45.724 27.8927 45.724C27.9198 45.8602 27.9398 45.993 27.9534 46.1291C27.9669 46.265 27.9735 46.3978 27.9735 46.5339C27.9737 46.67 27.9669 46.8129 27.9534 46.9491C27.9398 47.0852 27.9198 47.218 27.8927 47.3541C28.3824 47.3268 28.8708 47.3002 29.3606 47.273C29.8506 47.2459 30.3388 47.2325 30.8288 47.2325C30.8288 50.2534 30.8154 53.2133 30.7882 56.1116C30.7609 59.0099 30.6547 61.9433 30.4643 64.9096C31.0901 64.8551 31.6848 64.8288 32.2562 64.8288C32.5284 64.8288 32.8175 64.8288 33.1169 64.8288C33.4163 64.8288 33.7084 64.8553 34.0078 64.9096C33.9262 61.9433 33.8796 58.9967 33.8661 56.0711C33.8523 53.1456 33.8457 50.1989 33.8457 47.2325C34.5532 47.2325 35.2576 47.2459 35.9516 47.273C36.6455 47.3004 37.3499 47.3268 38.0574 47.3541C38.0303 47.218 38.0103 47.0852 37.9967 46.9491C37.9832 46.8129 37.9764 46.67 37.9764 46.5339C37.9766 46.3978 37.9832 46.265 37.9967 46.1291C38.0103 45.993 38.0303 45.8602 38.0574 45.724C37.3499 45.724 36.6455 45.7306 35.9516 45.7442C35.2576 45.758 34.5532 45.7646 33.8457 45.7646C33.7096 44.9209 33.5968 44.0372 33.5016 43.1119C33.4062 42.1867 33.3598 41.4757 33.3598 40.9859C33.3598 40.4417 33.4195 39.9267 33.5421 39.4367C33.6644 38.947 33.8572 38.5185 34.1292 38.151C34.4014 37.7836 34.7502 37.4813 35.1719 37.25C35.5938 37.0187 36.1123 36.9057 36.7109 36.9057C37.5547 36.9057 38.2953 37.105 38.9484 37.5131L39.1913 37.3917C39.1915 36.8475 39.2214 36.306 39.2623 35.7617C39.3032 35.2174 39.3363 34.6759 39.3635 34.1317C39.1186 34.05 38.8429 34 38.5435 34ZM114.689 36.3286C112.457 36.3286 110.401 36.6575 108.523 37.3107C106.645 37.9637 105.031 38.914 103.684 40.1658C102.336 41.4175 101.293 42.9526 100.545 44.7621C99.7966 46.5719 99.4212 48.6349 99.4212 50.9483C99.4212 53.2614 99.7966 55.3244 100.545 57.1342C101.293 58.944 102.336 60.4687 103.684 61.7205C105.031 62.9724 106.645 63.9025 108.523 64.5149C110.401 65.1272 112.457 65.4362 114.689 65.4362C116.947 65.4362 119.017 65.1272 120.895 64.5149C122.773 63.9025 124.387 62.9724 125.734 61.7205C127.081 60.4687 128.125 58.944 128.873 57.1342C129.621 55.3244 129.997 53.2614 129.997 50.9483C129.997 48.6349 129.621 46.5719 128.873 44.7621C128.125 42.9526 127.081 41.4177 125.734 40.1658C124.387 38.914 122.773 37.9639 120.895 37.3107C119.017 36.6575 116.947 36.3286 114.689 36.3286ZM0 36.8651C0.0816284 38.6614 0.154726 40.4221 0.222782 42.15C0.290838 43.8782 0.323991 45.6389 0.323991 47.4351V54.4513C0.323991 56.2473 0.290838 58.0247 0.222782 59.7665C0.154726 61.5082 0.0816284 63.2224 0 64.9096C1.30625 64.8551 2.56538 64.8288 3.77642 64.8288C4.98747 64.8288 6.24641 64.8288 7.55285 64.8288C8.80462 64.8288 10.0572 64.8288 11.3089 64.8288C12.5607 64.8288 13.8132 64.8553 15.065 64.9096C14.9291 64.4743 14.8626 64.1056 14.8626 63.8062C14.8626 63.4795 14.9291 63.0709 15.065 62.5812C13.0239 62.8532 11.1137 63.006 9.3448 63.0469C7.57593 63.0876 5.72891 63.1076 3.79659 63.1076C3.76945 61.121 3.74288 58.8718 3.71574 56.3545C3.6884 53.8372 3.67522 50.8641 3.67522 47.4351C3.67522 45.6389 3.70837 43.8782 3.77642 42.15C3.84448 40.4221 3.91758 38.6614 3.99921 36.8651C3.64535 36.9196 3.30314 36.9662 2.97662 37.0069C2.64991 37.0478 2.32108 37.0678 1.99456 37.0678C1.66805 37.0678 1.3491 37.0478 1.02258 37.0069C0.696071 36.9662 0.353852 36.9196 0 36.8651ZM58.5896 36.8651C58.8618 37.5728 59.2372 38.6557 59.7134 40.1252C60.1898 41.5949 60.7214 43.2492 61.2928 45.0861C61.8644 46.9231 62.4589 48.86 63.085 50.8874C63.7108 52.9149 64.3053 54.8482 64.8769 56.6989C65.4485 58.5494 65.9668 60.2105 66.4158 61.68C66.8649 63.1497 67.1902 64.2293 67.408 64.9096C67.8435 64.8551 68.3286 64.8288 68.8457 64.8288C69.3628 64.8288 69.8378 64.8553 70.2731 64.9096C70.6814 63.7121 71.1299 62.3801 71.6197 60.9106C72.1096 59.4411 72.6113 57.9394 73.1282 56.4154C73.6453 54.8914 74.1603 53.3764 74.6774 51.8797C75.1943 50.3829 75.6761 48.9843 76.1251 47.6781C76.574 46.3718 76.9827 45.1924 77.3502 44.1446C77.7176 43.0968 78.0133 42.2598 78.231 41.6337H78.3119C79.6999 45.7159 80.992 49.6759 82.1895 53.4995C83.387 57.3232 84.5996 61.127 85.8242 64.9096C86.2597 64.8551 86.7213 64.8288 87.2113 64.8288C87.7011 64.8288 88.1629 64.8553 88.5982 64.9096C88.8433 64.2566 89.2186 63.1834 89.722 61.7003C90.2255 60.2171 90.7936 58.5428 91.4331 56.6785C92.0725 54.8145 92.7438 52.8544 93.4377 50.7862C94.1317 48.7179 94.7926 46.7546 95.4323 44.9039C96.0718 43.0534 96.6565 41.4057 97.1736 39.9633C97.6905 38.521 98.0861 37.4912 98.3581 36.8651C98.1132 36.9196 97.8707 36.9662 97.6394 37.0069C97.4081 37.0478 97.1756 37.0678 96.9307 37.0678C96.6858 37.0678 96.443 37.0478 96.2117 37.0069C95.9804 36.9662 95.7379 36.9196 95.493 36.8651C95.3569 37.4639 95.1112 38.3874 94.7438 39.6393C94.3764 40.8911 93.9545 42.3096 93.4783 43.9017C93.0019 45.4937 92.5003 47.168 91.9696 48.9233C91.4389 50.6787 90.914 52.353 90.4105 53.9451C89.9072 55.5369 89.4585 56.9622 89.0639 58.2275C88.6693 59.4931 88.3837 60.4334 88.1933 61.032H88.1123C87.8674 60.3245 87.5318 59.3378 87.1101 58.0858C86.6882 56.834 86.2197 55.4355 85.7026 53.8844C85.1857 52.333 84.6407 50.7119 84.0828 49.0247C83.525 47.3372 83.0035 45.7095 82.5135 44.1446C82.0237 42.5799 81.5818 41.1614 81.1873 39.8823C80.7927 38.6032 80.5071 37.6 80.3165 36.8651C79.7722 37.0012 79.3137 37.0678 78.9598 37.0678C78.6062 37.0678 78.1577 37.0012 77.6133 36.8651C77.45 37.5455 77.1844 38.5155 76.8034 39.7811C76.4224 41.0464 75.9873 42.445 75.4973 43.9827C75.0076 45.5203 74.4691 47.1348 73.8977 48.822C73.3261 50.5093 72.7848 52.1372 72.2677 53.7021C71.7506 55.2668 71.2755 56.6919 70.84 57.9846C70.4048 59.2773 70.0625 60.2973 69.8177 61.032H69.7366C68.9201 58.4466 68.1994 56.1211 67.5598 54.0664C66.9203 52.0118 66.3156 50.0585 65.7578 48.1944C65.1997 46.3301 64.6784 44.4864 64.1884 42.6767C63.6986 40.8669 63.197 38.9336 62.6799 36.8651C62.3261 36.9196 61.9839 36.9662 61.6573 37.0069C61.3308 37.0478 60.9886 37.0678 60.6348 37.0678C60.2811 37.0678 59.9389 37.0478 59.6122 37.0069C59.2857 36.9662 58.9434 36.9196 58.5896 36.8651ZM134.938 36.8651C135.019 38.6614 135.092 40.4221 135.16 42.15C135.228 43.8782 135.262 45.6389 135.262 47.4351V54.4513C135.262 56.2473 135.228 58.0247 135.16 59.7665C135.092 61.5082 135.019 63.2224 134.938 64.9096C135.563 64.8551 136.234 64.8288 136.942 64.8288C137.65 64.8288 138.311 64.8553 138.937 64.9096C138.855 63.2224 138.782 61.5082 138.714 59.7665C138.646 58.0247 138.613 56.2473 138.613 54.4513V51.4747H140.162C141.032 52.3728 141.989 53.4723 143.037 54.765C144.085 56.0579 145.118 57.3568 146.125 58.663C147.132 59.9693 148.049 61.195 148.879 62.338C149.709 63.481 150.333 64.3382 150.742 64.9096C151.122 64.8551 151.508 64.8288 151.916 64.8288C152.324 64.8288 152.72 64.8288 153.101 64.8288C153.509 64.8288 153.917 64.8288 154.326 64.8288C154.734 64.8288 155.142 64.8553 155.551 64.9096C155.17 64.5286 154.668 63.9638 154.042 63.229C153.416 62.4941 152.755 61.6836 152.048 60.7991C151.34 59.9148 150.602 58.9913 149.84 58.0251C149.078 57.059 148.341 56.1354 147.633 55.2511C146.926 54.3666 146.291 53.5559 145.72 52.8213C145.148 52.0864 144.7 51.5185 144.373 51.1102C145.163 51.0014 146.04 50.772 147.006 50.4319C147.972 50.0916 148.875 49.6166 149.719 49.0043C150.563 48.392 151.27 47.6147 151.855 46.6757C152.44 45.7368 152.736 44.6208 152.736 43.3144C152.736 42.0897 152.517 41.0633 152.068 40.2468C151.619 39.4303 151.001 38.7759 150.225 38.2726C149.45 37.7691 148.546 37.4069 147.512 37.1891C146.478 36.9716 145.385 36.8651 144.242 36.8651C143.453 36.8651 142.685 36.8985 141.923 36.9665C141.161 37.0346 140.384 37.0678 139.595 37.0678C138.805 37.0678 138.028 37.0478 137.266 37.0069C136.504 36.9662 135.727 36.9196 134.938 36.8651ZM155.844 36.8651C155.98 37.4096 156.047 37.8315 156.047 38.1309C156.047 38.5117 155.98 38.947 155.844 39.4367C156.416 39.3551 157.057 39.2888 157.778 39.2343C158.499 39.18 159.25 39.1232 160.026 39.0825C160.801 39.0416 161.579 39.015 162.354 39.0014C163.13 38.9879 163.874 38.9813 164.582 38.9813C164.663 41.7844 164.703 44.6047 164.703 47.4351V54.4513C164.703 56.2473 164.67 58.0247 164.602 59.7665C164.534 61.5082 164.461 63.2224 164.379 64.9096C165.005 64.8551 165.666 64.8288 166.373 64.8288C167.08 64.8288 167.751 64.8553 168.378 64.9096C168.296 63.2224 168.224 61.5082 168.155 59.7665C168.087 58.0247 168.054 56.2473 168.054 54.4513V47.4351C168.054 44.6047 168.095 41.7844 168.176 38.9813C168.884 38.9813 169.617 38.9879 170.392 39.0014C171.168 39.015 171.945 39.0416 172.721 39.0825C173.496 39.1232 174.249 39.1798 174.97 39.2343C175.691 39.2888 176.331 39.3551 176.903 39.4367C176.767 38.947 176.699 38.525 176.699 38.1712C176.699 37.8447 176.767 37.4096 176.903 36.8651C175.108 36.9196 173.353 36.9662 171.639 37.0069C169.923 37.0478 168.17 37.0678 166.373 37.0678C164.577 37.0678 162.823 37.0478 161.109 37.0069C159.394 36.9662 157.64 36.9196 155.844 36.8651ZM180.953 36.8651C181.035 38.6614 181.107 40.4221 181.174 42.15C181.244 43.8782 181.277 45.6389 181.277 47.4351V54.4513C181.277 56.2473 181.244 58.0247 181.174 59.7665C181.107 61.5082 181.035 63.2224 180.953 64.9096C181.578 64.8551 182.251 64.8288 182.956 64.8288C183.664 64.8288 184.325 64.8553 184.951 64.9096C184.87 63.2224 184.796 61.5082 184.728 59.7665C184.661 58.0247 184.628 56.2473 184.628 54.4513V50.7862C186.097 50.759 187.517 50.7391 188.889 50.7255C190.264 50.7119 191.693 50.7051 193.163 50.7051C194.632 50.7053 196.05 50.7119 197.425 50.7255C198.799 50.7391 200.219 50.759 201.688 50.7862V54.4513C201.688 56.2473 201.653 58.0247 201.585 59.7665C201.518 61.5082 201.446 63.2224 201.362 64.9096C201.989 64.8551 202.66 64.8288 203.367 64.8288C204.075 64.8288 204.736 64.8553 205.362 64.9096C205.281 63.2224 205.207 61.5082 205.139 59.7665C205.072 58.0247 205.039 56.2473 205.039 54.4513V47.4351C205.039 45.6389 205.072 43.8782 205.139 42.15C205.207 40.4221 205.281 38.6614 205.362 36.8651C205.01 36.9196 204.666 36.9662 204.341 37.0069C204.013 37.0478 203.695 37.0678 203.367 37.0678C203.042 37.0678 202.712 37.0478 202.386 37.0069C202.059 36.9662 201.717 36.9196 201.362 36.8651C201.446 38.6614 201.518 40.4221 201.585 42.15C201.653 43.8782 201.688 45.6389 201.688 47.4351V48.8626C200.219 48.8897 198.799 48.9163 197.425 48.9436C196.05 48.9708 194.632 48.9841 193.163 48.9841C191.693 48.9841 190.264 48.9708 188.889 48.9436C187.517 48.9165 186.097 48.8897 184.628 48.8626V47.4351C184.628 45.6389 184.661 43.8782 184.728 42.15C184.796 40.4221 184.87 38.6614 184.951 36.8651C184.599 36.9196 184.255 36.9662 183.93 37.0069C183.602 37.0478 183.284 37.0678 182.956 37.0678C182.631 37.0678 182.301 37.0478 181.975 37.0069C181.649 36.9662 181.306 36.9196 180.953 36.8651ZM114.689 37.8371C116.294 37.8373 117.779 38.0996 119.154 38.6168C120.528 39.1339 121.727 39.9311 122.748 41.0061C123.768 42.081 124.565 43.4398 125.137 45.0861C125.708 46.7327 125.998 48.6894 125.998 50.9483C125.998 53.2069 125.708 55.1536 125.137 56.8001C124.565 58.4464 123.768 59.8153 122.748 60.8902C121.727 61.9654 120.528 62.7524 119.154 63.2695C117.779 63.7866 116.294 64.0491 114.689 64.0491C113.11 64.0491 111.629 63.7866 110.254 63.2695C108.88 62.7524 107.691 61.9654 106.67 60.8902C105.65 59.8153 104.852 58.4466 104.281 56.8001C103.709 55.1536 103.42 53.2069 103.42 50.9483C103.42 48.6894 103.709 46.7327 104.281 45.0861C104.853 43.4398 105.65 42.081 106.67 41.0061C107.691 39.9311 108.88 39.1339 110.254 38.6168C111.629 38.0996 113.11 37.8371 114.689 37.8371ZM142.814 38.3738C143.522 38.3738 144.246 38.4469 144.981 38.5964C145.716 38.7461 146.4 39.0286 147.026 39.4367C147.652 39.8451 148.16 40.3932 148.555 41.0871C148.949 41.7811 149.142 42.658 149.142 43.7194C149.142 44.944 148.896 45.9538 148.393 46.7567C147.889 47.5594 147.251 48.2041 146.489 48.6803C145.727 49.1567 144.89 49.4921 143.978 49.6827C143.067 49.8731 142.19 49.9662 141.346 49.9662C140.802 49.9662 140.307 49.9528 139.858 49.9257C139.409 49.8983 138.994 49.8452 138.613 49.7636V47.4351C138.613 45.9654 138.639 44.5006 138.694 43.0309C138.748 41.5614 138.801 40.0731 138.855 38.5762C139.291 38.5217 139.819 38.4754 140.445 38.4345C141.071 38.3936 141.862 38.3738 142.814 38.3738ZM21.0182 38.6168C20.4466 38.6168 19.9584 38.8262 19.5501 39.2343C19.142 39.6426 18.9325 40.1309 18.9325 40.7024C18.9325 41.2738 19.142 41.7623 19.5501 42.1704C19.9584 42.5785 20.4466 42.7879 21.0182 42.7879C21.5896 42.7879 22.0781 42.5785 22.4862 42.1704C22.8943 41.7623 23.1037 41.2738 23.1037 40.7024C23.1037 40.1309 22.8943 39.6424 22.4862 39.2343C22.0781 38.8262 21.5896 38.6168 21.0182 38.6168ZM48.8704 45.1065C45.8222 45.1065 43.5069 46.0566 41.9149 47.9616C40.3229 49.8665 39.5256 52.5009 39.5256 55.8485C39.5256 57.209 39.7681 58.4747 40.2443 59.6451C40.7205 60.8152 41.3949 61.825 42.2794 62.6824C43.1638 63.5396 44.217 64.1874 45.428 64.6364C46.6391 65.0853 47.9779 65.3147 49.4474 65.3147C50.7536 65.3147 52.0128 65.0787 53.2238 64.6161C54.4349 64.1534 55.4447 63.5987 56.2611 62.9455L56.5041 60.9511L56.3015 60.8195C55.9478 61.2276 55.5325 61.6098 55.0563 61.9634C54.5799 62.3173 54.0717 62.6264 53.5275 62.8848C52.9832 63.1433 52.4285 63.3527 51.8569 63.5024C51.2855 63.652 50.7207 63.7251 50.1762 63.7251C49.0332 63.7251 48.0301 63.5223 47.1593 63.1278C46.2885 62.7332 45.551 62.205 44.9522 61.5382C44.3535 60.8714 43.8984 60.0742 43.5853 59.1489C43.2723 58.2237 43.1196 57.2336 43.1196 56.1723V55.6358C43.1196 55.3636 43.1329 55.1644 43.1601 55.0283C44.0582 55.0012 44.9485 54.9746 45.8331 54.9473C46.7174 54.9201 47.6078 54.9068 48.5059 54.9068C49.9754 54.9069 51.4371 54.9201 52.8795 54.9473C54.3218 54.9746 55.7735 55.0012 57.2432 55.0283C57.2703 54.7563 57.2903 54.487 57.3039 54.2285C57.3175 53.9699 57.3241 53.711 57.3241 53.4388C57.3241 52.2958 57.1581 51.216 56.818 50.2091C56.4777 49.2023 55.9461 48.3251 55.2386 47.5769C54.531 46.8283 53.6539 46.2338 52.6061 45.7847C51.5585 45.3357 50.3125 45.1065 48.8704 45.1065ZM48.9613 46.4126C50.0227 46.4126 50.8799 46.6485 51.5329 47.1111C52.1861 47.5738 52.6943 48.1551 53.0617 48.8626C53.4292 49.5701 53.6682 50.3342 53.7908 51.1507C53.9131 51.9672 53.973 52.7445 53.973 53.4793C53.1021 53.5065 52.2051 53.533 51.2799 53.5604C50.3546 53.5875 49.4443 53.6007 48.5464 53.6007C47.6754 53.6007 46.7851 53.5875 45.8734 53.5604C44.9617 53.533 44.0847 53.5065 43.2411 53.4793C43.2956 52.7445 43.435 51.9606 43.6663 51.1305C43.8976 50.3005 44.2399 49.5363 44.6889 48.8424C45.138 48.1485 45.7162 47.5738 46.4101 47.1111C47.104 46.6483 47.9544 46.4126 48.9613 46.4126ZM19.5096 45.7493C19.6457 46.9196 19.7422 48.1787 19.783 49.5257C19.8239 50.8728 19.8438 52.1585 19.8438 53.3832V57.6253C19.8436 58.8497 19.8239 60.1354 19.783 61.4826C19.7422 62.8297 19.6457 64.0489 19.5096 65.1374C20.1356 65.083 20.7536 65.0564 21.3523 65.0564C21.9511 65.0564 22.5589 65.0832 23.1848 65.1374C23.0487 64.0489 22.9624 62.8297 22.9215 61.4826C22.8808 60.1354 22.8608 58.8499 22.8608 57.6253V53.3832C22.8608 52.1585 22.8808 50.8728 22.9215 49.5257C22.9624 48.1787 23.0487 46.9196 23.1848 45.7493C22.4228 45.8854 21.8149 45.9519 21.3523 45.9519C20.8897 45.9519 20.2716 45.8854 19.5096 45.7493Z" fill="#19368B"/>
<path d="M177.896 71.0653C178.028 69.9948 178.142 68.9753 178.239 68.0078H178.543C179.377 69.7253 180.221 71.3883 181.074 73.0092C181.927 74.63 182.826 76.2951 183.757 78.0004C183.877 77.7706 184.054 77.4375 184.285 77.0083C184.513 76.579 184.781 76.0865 185.083 75.5302C185.386 74.9738 185.7 74.3752 186.045 73.728C186.39 73.081 186.741 72.4291 187.098 71.7639C187.455 71.0986 187.809 70.4408 188.16 69.7998C188.511 69.1588 188.841 68.5641 189.143 68.0078H189.376C189.51 69.1688 189.636 70.2864 189.75 71.3691C189.865 72.4516 189.985 73.5221 190.105 74.5683C190.225 75.6146 190.349 76.6443 190.47 77.6663C190.59 78.6883 190.72 79.6999 190.865 80.7036C190.72 80.6794 190.578 80.6732 190.439 80.6734H190.014H189.589C189.45 80.6734 189.308 80.6796 189.163 80.7036C189.031 79.0949 188.891 77.5382 188.758 76.0262C188.626 74.5142 188.467 72.9718 188.273 71.3994H188.232C187.398 72.9234 186.586 74.4394 185.781 75.9451C184.977 77.4511 184.209 79.0282 183.484 80.6734H183.321C182.596 79.1494 181.836 77.6169 181.045 76.0869C180.252 74.5569 179.453 72.9961 178.654 71.3994H178.625C178.54 72.1493 178.443 72.9625 178.34 73.8393C178.237 74.7163 178.142 75.5785 178.057 76.4312C177.973 77.284 177.905 78.0849 177.845 78.8407C177.783 79.5967 177.754 80.2199 177.754 80.7036C177.56 80.6794 177.345 80.6732 177.116 80.6734C176.886 80.6734 176.67 80.6796 176.478 80.7036C176.636 79.7239 176.804 78.6941 176.973 77.6056C177.143 76.5171 177.302 75.4158 177.46 74.3153C177.617 73.2146 177.762 72.1358 177.896 71.0653Z" fill="#F38000"/>
<path d="M163.225 70.5895C163.195 69.8215 163.16 69.0387 163.124 68.2407C163.281 68.2647 163.434 68.2831 163.579 68.3014C163.724 68.3194 163.869 68.3316 164.015 68.3318C164.16 68.3318 164.305 68.3194 164.45 68.3014C164.595 68.2831 164.748 68.2649 164.906 68.2407C164.869 69.0389 164.834 69.8215 164.804 70.5895C164.774 71.3575 164.754 72.14 164.754 72.9383V73.5762C165.407 73.5882 166.046 73.5944 166.658 73.6064C167.269 73.6186 167.897 73.6268 168.55 73.6268C169.204 73.6268 169.832 73.6186 170.445 73.6064C171.055 73.5944 171.693 73.5882 172.347 73.5762V72.9383C172.347 72.14 172.327 71.3575 172.296 70.5895C172.265 69.8215 172.232 69.0387 172.195 68.2407C172.352 68.2647 172.506 68.2831 172.651 68.3014C172.796 68.3194 172.94 68.3316 173.085 68.3318C173.231 68.3318 173.376 68.3194 173.522 68.3014C173.667 68.2831 173.82 68.2649 173.977 68.2407C173.94 69.0389 173.906 69.8215 173.876 70.5895C173.845 71.3575 173.826 72.14 173.826 72.9383V76.0566C173.826 76.8549 173.845 77.6415 173.876 78.4155C173.906 79.1897 173.94 79.9539 173.977 80.7036C173.698 80.6794 173.401 80.6732 173.085 80.6734C172.771 80.6734 172.473 80.6796 172.195 80.7036C172.232 79.9539 172.265 79.1897 172.296 78.4155C172.327 77.6415 172.347 76.8549 172.347 76.0566V74.4266C171.693 74.4146 171.055 74.4022 170.445 74.3962C169.832 74.3901 169.204 74.3861 168.55 74.3861C167.897 74.3861 167.269 74.3901 166.658 74.3962C166.046 74.4022 165.407 74.4146 164.754 74.4266V76.0566C164.754 76.8549 164.774 77.6415 164.804 78.4155C164.834 79.1897 164.869 79.9539 164.906 80.7036C164.627 80.6794 164.329 80.6732 164.015 80.6734C163.7 80.6734 163.402 80.6796 163.124 80.7036C163.16 79.9539 163.195 79.1897 163.225 78.4155C163.255 77.6415 163.276 76.8549 163.276 76.0566V72.9383C163.276 72.14 163.255 71.3575 163.225 70.5895Z" fill="#F38000"/>
<path fill-rule="evenodd" clip-rule="evenodd" d="M199.288 68.0078C198.295 68.0078 197.378 68.1528 196.544 68.4431C195.711 68.7334 194.997 69.1522 194.398 69.7086C193.799 70.2649 193.333 70.9493 193 71.7538C192.668 72.5581 192.494 73.4694 192.494 74.4974C192.494 75.5256 192.668 76.4469 193 77.2512C193.333 78.0555 193.799 78.7298 194.398 79.2863C194.997 79.8426 195.711 80.2594 196.544 80.5317C197.378 80.8037 198.295 80.9365 199.288 80.9365C200.292 80.9365 201.207 80.8037 202.041 80.5317C202.877 80.2594 203.59 79.8426 204.187 79.2863C204.787 78.73 205.252 78.0557 205.585 77.2512C205.917 76.4469 206.092 75.5256 206.092 74.4974C206.092 73.4694 205.917 72.5581 205.585 71.7538C205.252 70.9493 204.787 70.2651 204.187 69.7086C203.59 69.1524 202.877 68.7334 202.041 68.4431C201.207 68.1528 200.292 68.0078 199.288 68.0078ZM199.288 68.676C200.002 68.676 200.661 68.7904 201.271 69.0201C201.882 69.2501 202.419 69.6055 202.871 70.0832C203.325 70.561 203.672 71.1638 203.926 71.8955C204.18 72.6273 204.31 73.4936 204.31 74.4974C204.31 75.5013 204.18 76.3676 203.926 77.0994C203.672 77.8313 203.325 78.444 202.871 78.9218C202.419 79.3995 201.882 79.7449 201.271 79.9748C200.661 80.2046 200.002 80.319 199.288 80.319C198.586 80.319 197.925 80.2046 197.314 79.9748C196.703 79.7449 196.178 79.3995 195.724 78.9218C195.271 78.444 194.916 77.8311 194.662 77.0994C194.408 76.3676 194.276 75.5013 194.276 74.4974C194.276 73.4936 194.408 72.6273 194.662 71.8955C194.916 71.1638 195.271 70.561 195.724 70.0832C196.178 69.6055 196.703 69.2501 197.314 69.0201C197.925 68.7904 198.586 68.676 199.288 68.676Z" fill="#F38000"/>
</svg>
