<svg width="248" height="250" viewBox="0 0 248 250" fill="none" xmlns="http://www.w3.org/2000/svg">
    <path d="M123.975 212.5C76.0457 212.5 37.1917 173.325 37.1917 125C37.1917 76.6754 76.0457 37.5003 123.975 37.5003C171.903 37.5003 210.757 76.6754 210.757 125C210.757 173.325 171.903 212.5 123.975 212.5ZM123.975 225C178.751 225 223.155 180.229 223.155 125C223.155 69.7718 178.751 25.0003 123.975 25.0003C69.1987 25.0003 24.7942 69.7718 24.7942 125C24.7942 180.229 69.1987 225 123.975 225Z" fill="#4CAF50"/>
    <path d="M171.75 76.8308C174.17 79.2715 174.17 83.2288 171.75 85.6695L122.159 135.67C119.738 138.11 115.813 138.11 113.393 135.67L88.5976 110.67C86.1768 108.229 86.1768 104.272 88.5976 101.831C91.0184 99.3899 94.9432 99.3899 97.3639 101.831L117.776 122.411L162.982 76.8308C165.403 74.3899 169.329 74.3899 171.75 76.8308Z" fill="#4CAF50"/>
    <path d="M86.782 168.75C86.782 172.201 89.5573 175 92.9808 175H154.947C158.37 175 161.146 172.201 161.146 168.75C161.146 165.298 158.37 162.5 154.947 162.5H92.9808C89.5573 162.5 86.782 165.298 86.782 168.75Z" fill="#4CAF50"/>
</svg>
