<svg width="55" height="70" viewBox="0 0 55 70" fill="none" xmlns="http://www.w3.org/2000/svg">
    <path d="M11.5886 0.478088C5.33357 0.478088 0.234375 5.57838 0.234375 11.8334V34.612C0.234375 38.3593 2.18712 41.5224 5.00589 43.5989L4.79747 43.7036L14.7239 54.5006C16.4214 56.489 17.8492 58.7727 18.4154 61.3274L19.8443 67.005C20.1341 68.1486 20.9756 69.0246 22.108 69.0246H23.5358C26.9464 69.0246 29.8053 66.1769 29.8053 62.7551V60.2128C29.8053 55.225 28.4867 50.2841 26.2877 45.9674H48.5793C51.7135 45.9674 54.2558 43.4239 54.2569 40.2897C54.2569 37.1555 52.8637 36.0342 52.8637 34.612C52.8637 33.1898 54.2558 32.0351 54.2569 28.8998C54.2569 25.7656 51.9899 23.7739 51.7135 22.3517C51.1361 20.6508 51.9776 17.8031 51.1216 15.8035C50.2768 13.8151 48.5904 12.7072 48.3006 10.7188C48.022 8.71927 49.1566 6.44887 48.3006 4.17067C47.166 2.46091 45.1542 0.478088 42.3098 0.478088C40.3214 0.478088 11.5886 0.478088 11.5886 0.478088Z" fill="#A47939"/>
</svg>
