<svg width="55" height="70" viewBox="0 0 55 70" fill="none" xmlns="http://www.w3.org/2000/svg">
    <path d="M43.1454 69.3405C49.4004 69.3405 54.5007 64.2402 54.5007 57.9852V35.2066C54.5007 31.4594 52.5468 28.2962 49.7292 26.2197L49.9376 26.1149L40.0112 15.318C38.3126 13.3296 36.8848 11.0447 36.3197 8.49122L34.8908 2.81357C34.601 1.67001 33.7595 0.793976 32.6271 0.793976H31.1993C27.7887 0.793976 24.9298 3.64061 24.9298 7.06348V9.6058C24.9298 14.5935 26.2484 19.5345 28.4475 23.8512H6.15592C3.02173 23.8512 0.478271 26.3936 0.478271 29.5289C0.478271 32.6631 1.87149 33.7833 1.87149 35.2055C1.87149 36.6277 0.478271 37.7835 0.478271 40.9177C0.478271 44.053 2.74531 46.0447 3.02061 47.4669C3.59908 49.1678 2.75757 52.0144 3.61356 54.0151C4.45841 56.0024 6.14477 57.1114 6.43456 59.0998C6.71321 61.0993 5.57857 63.3697 6.43456 65.6479C7.5692 67.3577 9.58101 69.3405 12.4254 69.3405C14.4138 69.3405 43.1465 69.3405 43.1454 69.3405Z" fill="#A47939"/>
</svg>
