<svg width="23" height="23" viewBox="0 0 23 23" fill="none" xmlns="http://www.w3.org/2000/svg">
    <path d="M20.9663 0.694366C19.8623 0.694366 18.9681 1.5627 18.9681 2.6339C18.9681 3.7051 19.8623 4.57343 20.9663 4.57343C22.0702 4.57343 22.9644 3.7051 22.9644 2.6339C22.9644 1.5627 22.0702 0.694366 20.9663 0.694366Z" fill="white"/>
    <path d="M13.8577 21.9055C13.0683 21.1394 13.0683 19.8971 13.8577 19.1301L19.9816 13.2455C21.3295 11.9373 21.98 10.1772 21.98 8.45391C21.98 6.69573 21.3545 4.97827 19.9816 3.64581C18.6088 2.31336 16.7953 1.65294 14.9857 1.66555C13.2102 1.67816 11.4377 2.3376 10.0908 3.64581L4.01775 9.5575C3.2284 10.3236 1.94845 10.3236 1.1581 9.5575" stroke="white" stroke-width="2"/>
    <path d="M13.5607 23L0 9.80926L1.4188 8.44383L14.9805 21.6346L13.5607 23Z" fill="white"/>
    <path d="M7.99401 18.1509C6.88991 18.1509 5.99564 19.0192 5.99564 20.0904C5.99564 21.1616 6.88991 22.03 7.99401 22.03C9.09811 22.03 9.99238 21.1616 9.99238 20.0904C9.99238 19.0192 9.09811 18.1509 7.99401 18.1509Z" fill="white"/>
</svg>
