<svg width="20" height="21" viewBox="0 0 20 21" fill="none" xmlns="http://www.w3.org/2000/svg">
    <path d="M10.1827 2.84824C5.76837 2.84824 2.18934 6.32194 2.18934 10.6064C2.18934 14.8908 5.76837 18.3645 10.1827 18.3645C14.597 18.3645 18.1761 14.8908 18.1761 10.6064C18.1761 6.32194 14.597 2.84824 10.1827 2.84824ZM10.1827 14.4854C7.97554 14.4854 6.18602 12.7486 6.18602 10.6064C6.18602 8.46415 7.97554 6.7273 10.1827 6.7273C12.3899 6.7273 14.1794 8.46415 14.1794 10.6064C14.1794 12.7486 12.3899 14.4854 10.1827 14.4854Z" fill="white"/>
    <path d="M13.0957 3.8186L12.5122 0.909302H7.85004L7.26654 3.8186H13.0957ZM7.26654 17.3953L7.85004 20.3046H12.5122L13.0957 17.3953H7.26654ZM5.58092 4.76315L2.69329 3.79824L0.362244 7.71803L2.66634 9.66241L5.58092 4.76315ZM14.7813 16.4508L17.6689 17.4157L20 13.4959L17.6959 11.5515L14.7813 16.4508ZM2.66634 11.5515L0.362244 13.4959L2.69329 17.4157L5.58092 16.4508L2.66634 11.5515ZM17.6959 9.66241L20 7.71803L17.6689 3.79824L14.7813 4.76315L17.6959 9.66241Z" fill="white"/>
</svg>
