<svg width="28" height="25" viewBox="0 0 28 25" fill="none" xmlns="http://www.w3.org/2000/svg">
    <path d="M9.27997 0C7.35797 0 5.79998 1.45602 5.79998 3.25203C5.79998 5.04804 7.35797 6.50406 9.27997 6.50406C11.202 6.50406 12.76 5.04804 12.76 3.25203C12.76 1.45602 11.202 0 9.27997 0ZM18.5599 0C16.6379 0 15.08 1.45602 15.08 3.25203C15.08 5.04804 16.6379 6.50406 18.5599 6.50406C20.4819 6.50406 22.0399 5.04804 22.0399 3.25203C22.0399 1.45602 20.4819 0 18.5599 0ZM13.92 11.9241C11.998 11.9241 10.44 13.3801 10.44 15.1761C10.44 16.9721 11.998 18.4281 13.92 18.4281C15.8419 18.4281 17.3999 16.9721 17.3999 15.1761C17.3999 13.3801 15.8419 11.9241 13.92 11.9241ZM16.1239 18.9701C15.4279 19.2951 14.7319 19.5111 13.92 19.5111C13.108 19.5111 12.412 19.2951 11.716 18.9701C10.324 19.7281 9.27997 21.1371 9.27997 22.7631C9.27997 23.3051 9.27997 24.0641 9.27997 24.0641C9.27997 24.0641 10.44 24.9312 13.92 24.9312C17.3999 24.9312 18.5599 24.0641 18.5599 24.0641C18.5599 24.0641 18.5599 23.1971 18.5599 22.7631C18.5599 21.1371 17.5159 19.7281 16.1239 18.9701ZM23.1999 6.50406C21.2779 6.50406 19.7199 7.96002 19.7199 9.75603C19.7199 11.552 21.2779 13.0081 23.1999 13.0081C25.1219 13.0081 26.6799 11.552 26.6799 9.75603C26.6799 7.96002 25.1219 6.50406 23.1999 6.50406ZM25.4039 13.5501C24.7079 13.8751 24.0119 14.092 23.1999 14.092C22.3879 14.092 21.6919 13.8751 20.9959 13.5501C19.6039 14.3081 18.5599 15.7181 18.5599 17.3441C18.5599 17.8861 18.5599 18.6441 18.5599 18.6441C18.5599 18.6441 19.7199 19.5111 23.1999 19.5111C26.6799 19.5111 27.8399 18.6441 27.8399 18.6441C27.8399 18.6441 27.8399 17.7771 27.8399 17.3441C27.8399 15.7181 26.7959 14.3081 25.4039 13.5501ZM4.63998 6.50406C2.71799 6.50406 1.16 7.96002 1.16 9.75603C1.16 11.552 2.71799 13.0081 4.63998 13.0081C6.56198 13.0081 8.11997 11.552 8.11997 9.75603C8.11997 7.96002 6.56198 6.50406 4.63998 6.50406ZM6.84397 13.5501C6.14797 13.8751 5.45198 14.092 4.63998 14.092C3.82799 14.092 3.13198 13.8751 2.43598 13.5501C1.04399 14.3081 0 15.7181 0 17.3441C0 17.8861 0 18.6441 0 18.6441C0 18.6441 1.16 19.5111 4.63998 19.5111C8.11997 19.5111 9.27997 18.6441 9.27997 18.6441C9.27997 18.6441 9.27997 17.7771 9.27997 17.3441C9.27997 15.7181 8.23597 14.3081 6.84397 13.5501Z" fill="#B3BFCC"/>
</svg>
