<svg width="24" height="24" viewBox="0 0 24 24" fill="none" xmlns="http://www.w3.org/2000/svg">
    <path d="M0.000235355 12.0741C0.0412356 18.7201 5.42827 24.04 12.0743 24C18.7204 23.959 24.0414 18.572 24.0004 11.9261C23.9594 5.2802 18.5723 -0.0407642 11.9263 0.000235349C5.28026 0.0412349 -0.0407649 5.42821 0.000235355 12.0741ZM5.52728 10.1931C5.52128 9.17812 6.34727 8.34214 7.36228 8.33614L11.4233 8.31118C11.4233 8.31118 9.7463 5.73719 9.7433 5.2752C9.7363 4.07521 11.0263 3.79017 11.0263 3.79017L17.1473 8.36812C17.9813 8.82411 18.4483 9.74515 18.4533 10.6681L18.4783 14.7291C18.4913 16.76 16.8403 18.4321 14.8093 18.4441L9.08629 18.479C8.07128 18.486 7.23627 17.845 6.86127 16.9241L5.63928 13.4241C5.54528 13.0551 5.45127 12.7791 5.44927 12.4091L5.43527 10.1941L5.52728 10.1931Z" fill="#B3BFCC"/>
</svg>
