<svg width="24" height="24" viewBox="0 0 24 24" fill="none" xmlns="http://www.w3.org/2000/svg">
    <path fill-rule="evenodd" clip-rule="evenodd" d="M20.451 8.82541L23.7241 12.3074C24.0919 12.6988 24.0919 13.3322 23.7241 13.7224C23.5408 13.9175 23.2999 14.0162 23.0592 14.0162C22.8184 14.0162 22.5776 13.9175 22.3942 13.7224L11.9854 2.64963L1.6058 13.6915C1.238 14.0829 0.643533 14.0829 0.27585 13.6915C-0.0919499 13.3001 -0.0919499 12.6679 0.27585 12.2765L11.3204 0.527192C11.6882 0.135793 12.2827 0.135793 12.6505 0.527192L17.6292 5.82355V1.0001C17.6292 0.449426 18.0506 0 18.5697 0H19.5104C20.0286 0 20.451 0.449426 20.451 1.0001V8.82541ZM1.63887 15.4942L11.9855 4.48685L22.3322 15.4942V20.9972C22.3322 22.6542 21.0681 24 19.5104 24H4.46067C2.90301 24 1.63887 22.6542 1.63887 20.9972V15.4942ZM13.8668 21.9986C14.385 21.9986 14.8073 21.5491 14.8073 20.9972V14.9941C14.8073 14.4422 14.385 13.9928 13.8668 13.9928H10.1043C9.58608 13.9928 9.16373 14.4422 9.16373 14.9941V20.9972C9.16373 21.5491 9.58608 21.9986 10.1043 21.9986H13.8668Z" fill="#B3BFCC"/>
</svg>
