<svg width="42" height="65" viewBox="0 0 42 65" fill="none" xmlns="http://www.w3.org/2000/svg">
    <path fill-rule="evenodd" clip-rule="evenodd" d="M41.8157 5.90906L41.8157 59.0911C41.8157 62.341 39.1276 65 35.8418 65H5.97395C2.68814 65 0 62.341 0 59.0911L2.32466e-06 5.90906C2.46672e-06 2.65908 2.68814 0 5.97395 0H35.8418C39.1276 0 41.8157 2.65909 41.8157 5.90906ZM20.8637 24.0788C17.6136 24.0788 14.9545 26.7669 14.9545 30.0527C14.9545 33.3379 17.6136 36.0261 20.8637 36.0261C15.9591 36.0261 12 38.7142 12 42H29.7272C29.7272 38.7142 25.7682 36.0261 20.8637 36.0261C24.1138 36.0261 26.7727 33.3379 26.7727 30.0527C26.7727 26.7669 24.1138 24.0788 20.8637 24.0788Z" fill="#CED4CE"/>
</svg>
