<svg width="55" height="50" viewBox="0 0 55 50" fill="none" xmlns="http://www.w3.org/2000/svg">
    <path d="M18.3331 0C14.5363 0 11.4585 2.87641 11.4585 6.42447C11.4585 9.97254 14.5363 12.8489 18.3331 12.8489C22.1299 12.8489 25.2076 9.97254 25.2076 6.42447C25.2076 2.87641 22.1299 0 18.3331 0Z" fill="#B3BFCC"/>
    <path d="M36.6687 0C32.8717 0 29.7937 2.87641 29.7937 6.42447C29.7937 9.97254 32.8717 12.8489 36.6687 12.8489C40.4658 12.8489 43.5437 9.97254 43.5437 6.42447C43.5437 2.87641 40.4658 0 36.6687 0Z" fill="#B3BFCC"/>
    <path d="M27.4994 23.5091C23.7019 23.5091 20.6236 26.3856 20.6236 29.9338C20.6236 33.4821 23.7019 36.3586 27.4994 36.3586C31.2968 36.3586 34.3751 33.4821 34.3751 29.9338C34.3751 26.3856 31.2968 23.5091 27.4994 23.5091Z" fill="#B3BFCC"/>
    <path d="M31.8548 37.4514C30.4798 38.0935 29.1048 38.5221 27.5006 38.5221C25.8965 38.5221 24.5215 38.0935 23.1465 37.4514C20.3965 38.9508 18.334 41.7344 18.334 44.9467C18.334 46.0174 18.334 47.5169 18.334 47.5169C18.334 47.5169 20.6257 49.2297 27.5006 49.2297C34.3756 49.2297 36.6672 47.5169 36.6672 47.5169C36.6672 47.5169 36.6672 45.8041 36.6672 44.9467C36.6672 41.7344 34.6047 38.9508 31.8548 37.4514Z" fill="#B3BFCC"/>
    <path d="M45.8325 12.8231C42.0355 12.8231 38.9576 15.6996 38.9576 19.2477C38.9576 22.7939 42.0355 25.6704 45.8325 25.6704C49.6295 25.6704 52.7073 22.7939 52.7073 19.2477C52.7073 15.6996 49.6295 12.8231 45.8325 12.8231Z" fill="#B3BFCC"/>
    <path d="M50.1871 26.7656C48.8119 27.4096 47.4369 27.8363 45.8325 27.8363C44.2282 27.8363 42.8531 27.4096 41.478 26.7656C38.7277 28.265 36.665 31.0484 36.665 34.2605C36.665 35.3312 36.665 36.8307 36.665 36.8307C36.665 36.8307 38.9569 38.5434 45.8325 38.5434C52.7082 38.5434 55 36.8307 55 36.8307C55 36.8307 55 35.1179 55 34.2605C55 31.0484 52.9373 28.265 50.1871 26.7656Z" fill="#B3BFCC"/>
    <path d="M9.16764 12.8231C5.37081 12.8231 2.29303 15.6996 2.29303 19.2477C2.29303 22.7939 5.37081 25.6704 9.16764 25.6704C12.9645 25.6704 16.0422 22.7939 16.0422 19.2477C16.0422 15.6996 12.9645 12.8231 9.16764 12.8231Z" fill="#B3BFCC"/>
    <path d="M13.5208 26.7656C12.1458 27.4096 10.7708 27.8363 9.16666 27.8363C7.5625 27.8363 6.18748 27.4096 4.81249 26.7656C2.0625 28.265 0 31.0484 0 34.2605C0 35.3312 0 36.8307 0 36.8307C0 36.8307 2.29169 38.5434 9.16666 38.5434C16.0416 38.5434 18.3333 36.8307 18.3333 36.8307C18.3333 36.8307 18.3333 35.1179 18.3333 34.2605C18.3333 31.0484 16.2708 28.265 13.5208 26.7656Z" fill="#B3BFCC"/>
</svg>
