<svg width="60" height="60" viewBox="0 0 60 60" fill="none" xmlns="http://www.w3.org/2000/svg">
    <path d="M0.000585151 30.1846C0.102739 46.7994 13.5695 60.1016 30.1846 59.9994C46.7994 59.8973 60.1016 46.4308 59.9994 29.8154C59.8973 13.2006 46.4308 -0.10157 29.8154 0.000584444C13.2004 0.102738 -0.10163 13.5692 0.000585151 30.1846ZM13.8181 25.4843C13.8024 22.9458 15.8666 20.856 18.405 20.8406L28.5586 20.7778C28.5586 20.7778 24.3651 14.3421 24.358 13.1883C24.3396 10.1883 27.566 9.47628 27.566 9.47628L42.8677 20.9206C44.9514 22.0615 46.1194 24.3625 46.1336 26.6701L46.1963 36.8234C46.2271 41.9003 42.0991 46.08 37.0222 46.1108L22.7149 46.1988C20.1765 46.2148 18.0897 44.6117 17.1524 42.3102L14.0985 33.5594C13.8621 32.6375 13.6271 31.9471 13.6213 31.024L13.5873 25.4855L13.8181 25.4843Z" fill="#B3BFCC"/>
</svg>
