<svg width="65" height="54" viewBox="0 0 65 54" fill="none" xmlns="http://www.w3.org/2000/svg">
    <path d="M21.462 0V18.0106H43.538V0H21.462ZM29.7453 2.25165H35.2547V6.75432H40.7837V11.2563H35.2547V15.759H29.7453V11.2563H24.2163V6.75432H29.7453V2.25165ZM0 7.19394V53.574H65V7.19394H46.3127V10.7997H60.7593V49.9688H38.0293V36.0206H26.9713V49.9688H4.24139V10.7997H18.688V7.19394H0ZM10.404 22.5133V31.5179H21.462V22.5133H10.404ZM26.9713 22.5133V31.5179H38.0293V22.5133H26.9713ZM43.538 22.5133V31.5179H54.596V22.5133H43.538ZM10.404 36.0206V45.0259H21.462V36.0206H10.404ZM43.538 36.0206V45.0259H54.596V36.0206H43.538Z" fill="#B3BFCC"/>
</svg>
