<svg width="105" height="103" viewBox="0 0 105 103" fill="none" xmlns="http://www.w3.org/2000/svg">
    <path d="M35.383 59.435C27.0282 61.5 17.6693 63.108 12.8987 61.556C3.09979 58.371 -2.26611 47.838 0.917792 38.037C4.11009 28.232 14.6322 22.861 24.4354 26.05C29.208 27.603 35.8378 34.411 41.3902 40.988C41.4322 40.952 41.4804 40.919 41.5244 40.883C41.6439 40.797 41.7591 40.707 41.8828 40.621C41.9813 40.546 42.0777 40.464 42.1783 40.395C37.6383 33.088 33.2157 24.687 33.2157 19.667C33.2157 9.36099 41.5768 1 51.8851 1C62.1892 1 70.5524 9.36099 70.5524 19.667C70.5524 24.687 66.1298 33.088 61.5919 40.395C61.6946 40.464 61.7931 40.55 61.8958 40.625C62.0069 40.707 62.1138 40.789 62.2249 40.871C62.2773 40.906 62.3297 40.948 62.38 40.984C67.9303 34.406 74.558 27.599 79.3308 26.045C89.1358 22.861 99.6688 28.227 102.853 38.033C106.034 47.838 100.675 58.366 90.8668 61.552C86.0968 63.103 76.7379 61.496 68.3851 59.435C68.3747 59.477 68.3621 59.517 68.3495 59.559C68.2657 59.834 68.1651 60.1 68.0686 60.368C76.042 63.611 84.5668 67.811 87.5198 71.873C93.5778 80.211 91.7248 91.888 83.3868 97.942C75.0422 104.006 63.3756 102.159 57.3118 93.815C54.3626 89.759 53.0023 80.352 52.3777 71.766C52.2142 71.771 52.0549 71.791 51.8851 71.791C51.7195 71.791 51.5602 71.771 51.3946 71.766C50.7721 80.352 49.4118 89.759 46.4626 93.823C40.403 102.159 28.728 104.01 20.39 97.95C12.0498 91.884 10.197 80.215 16.2566 71.877C19.2057 67.819 27.7282 63.615 35.6995 60.372C35.601 60.102 35.5004 59.834 35.4165 59.559C35.4039 59.517 35.3956 59.477 35.383 59.435Z" fill="#A25DA5"/>
    <path d="M48.6761 37.701C47.2403 34.549 45.8611 30.967 45.8611 28.81C45.8611 24.301 51.8851 20.65 51.8851 20.65C51.8851 20.65 57.9028 24.301 57.9028 28.81C57.9028 30.967 56.5257 34.545 55.09 37.701C54.0524 37.504 52.9834 37.395 51.8851 37.395C50.7889 37.395 49.7178 37.504 48.6761 37.701Z" fill="white"/>
    <path d="M74.5412 40.894C78.8298 39.502 84.1708 44.105 84.1708 44.105C84.1708 44.105 82.5498 50.953 78.2638 52.349C76.2118 53.013 72.3781 52.812 68.9301 52.422C68.6555 50.234 67.9806 48.169 66.9619 46.314C69.517 43.973 72.4934 41.562 74.5412 40.894Z" fill="white"/>
    <path d="M64.4005 66.3669C67.423 68.0729 70.6467 70.161 71.9127 71.905C74.5642 75.554 71.8351 82.049 71.8351 82.049C71.8351 82.049 64.8218 82.6319 62.1724 78.9869C60.9043 77.2389 59.9128 73.5309 59.217 70.1329C61.1788 69.2069 62.9332 67.9259 64.4005 66.3669Z" fill="white"/>
    <path d="M44.5551 70.1379C43.8635 73.5349 42.8762 77.2429 41.606 78.9869C38.9587 82.6339 31.9349 82.049 31.9349 82.049C31.9349 82.049 29.2121 75.56 31.8615 71.913C33.1296 70.169 36.3533 68.0769 39.3696 66.3669C40.8389 67.9309 42.5954 69.2109 44.5551 70.1379Z" fill="white"/>
    <path d="M29.2227 40.9059C31.2726 41.5709 34.2469 43.981 36.8041 46.318C35.7854 48.173 35.1105 50.236 34.8338 52.426C31.3879 52.82 27.5543 53.026 25.5043 52.357C21.22 50.961 19.604 44.1049 19.604 44.1049C19.604 44.1049 24.9342 39.5059 29.2227 40.9059Z" fill="white"/>
    <path d="M61.8016 54.593C61.8016 60.07 57.3622 64.508 51.8852 64.508C46.4062 64.508 41.9688 60.07 41.9688 54.593C41.9688 49.114 46.4062 44.677 51.8852 44.677C57.3622 44.677 61.8016 49.114 61.8016 54.593Z" fill="white"/>
</svg>
