<svg width="105" height="105" viewBox="0 0 105 105" fill="none" xmlns="http://www.w3.org/2000/svg">
    <path d="M66.3154 19.8579C66.3154 22.9349 68.7684 27.1769 71.8894 29.3899C74.9914 27.2019 77.4564 22.9349 77.4564 19.8579C77.4564 16.7809 74.9664 14.2839 71.8894 14.2839C68.8144 14.2839 66.3154 16.7809 66.3154 19.8579Z" fill="#A25DA5"/>
    <path d="M25.4324 19.8579C25.4324 22.9349 27.8804 27.1769 31.0034 29.3899C34.1014 27.2019 36.5753 22.9349 36.5753 19.8579C36.5753 16.7809 34.0784 14.2839 31.0034 14.2839C27.9204 14.2839 25.4324 16.7809 25.4324 19.8579Z" fill="#A25DA5"/>
    <path d="M45.8734 5.569C45.8734 8.646 48.3274 12.89 51.4444 15.104C54.5464 12.913 57.0204 8.646 57.0204 5.569C57.0204 2.494 54.5234 0 51.4444 0C48.3734 0 45.8734 2.494 45.8734 5.569Z" fill="#A25DA5"/>
    <path d="M10.4734 27.278C10.4734 27.278 23.3114 29.032 34.4584 39.164C35.5144 30.591 45.2734 21.467 51.6204 20.627C57.9614 21.467 67.7204 30.591 68.7764 39.164C79.9254 29.032 92.7634 27.278 92.7634 27.278C92.7634 27.278 94.0274 38.948 92.4304 53.214C92.2624 54.729 92.0634 56.2659 91.8204 57.827C88.6744 78.41 79.0574 102.198 51.6204 104.38C24.1794 102.198 14.5664 78.41 11.4144 57.827C11.1774 56.2659 10.9764 54.729 10.8084 53.214C9.2114 38.95 10.4734 27.278 10.4734 27.278Z" fill="#A25DA5"/>
    <path d="M69.6364 69.676C68.5234 60.676 58.2774 51.097 51.6204 50.215C44.9554 51.097 34.7074 60.676 33.5984 69.676C25.2444 62.084 16.0234 58.986 11.4144 57.827C11.1774 56.266 10.9763 54.729 10.8083 53.214C14.7053 54.034 22.9424 56.329 31.3874 62.319C35.4834 53.943 44.3494 46.781 51.0464 45.893L51.6204 45.817L52.1884 45.893C58.8874 46.781 67.7584 53.943 71.8474 62.319C80.2904 56.329 88.5294 54.031 92.4304 53.214C92.2624 54.729 92.0634 56.266 91.8204 57.827C87.2114 58.984 77.9883 62.084 69.6364 69.676Z" fill="white"/>
</svg>
