<svg width="108" height="104" viewBox="0 0 108 104" fill="none" xmlns="http://www.w3.org/2000/svg">
    <path d="M46.1997 52.6536C46.1997 56.9146 49.6557 60.3656 53.9087 60.3656C58.1697 60.3656 61.6227 56.9146 61.6227 52.6536C61.6227 48.3986 58.1697 44.9446 53.9087 44.9446C49.6557 44.9446 46.1997 48.3986 46.1997 52.6536Z" fill="#EA4695"/>
    <path d="M63.4307 0.166593C59.3837 0.988593 55.9607 4.58757 53.9087 10.0686C51.8677 4.58757 48.4357 0.988593 44.3867 0.166593C37.8277 -1.16041 32.8057 5.67957 32.8057 12.3746C32.8057 19.6156 39.5617 32.3386 53.9087 41.3876C68.2627 32.3386 75.0137 19.6156 75.0137 12.3746C75.0137 5.67957 69.9937 -1.16041 63.4307 0.166593Z" fill="#EA4695"/>
    <path d="M6.93269 27.3776C6.46269 31.4836 8.82668 35.8516 13.4097 39.4946C7.56368 39.7446 3.0797 41.8946 1.0467 45.4935C-2.2423 51.3186 2.71069 58.2125 9.07869 60.2795C15.9687 62.5155 30.1527 60.0255 43.1957 49.1725C39.0247 32.7285 29.0097 22.3745 22.1207 20.1395C15.7547 18.0695 7.69769 20.7286 6.93269 27.3776Z" fill="#EA4695"/>
    <path d="M15.3547 89.5255C19.1127 91.2375 24.0007 90.3405 28.8797 87.1105C27.3117 92.7485 27.9707 97.6725 30.7627 100.719C35.2857 105.648 43.3717 103.064 47.3067 97.6476C51.5637 91.7906 53.5777 77.5315 47.2897 61.7695C30.3577 60.6565 17.4167 66.9825 13.1637 72.8385C9.22567 78.2545 9.26568 86.7415 15.3547 89.5255Z" fill="#EA4695"/>
    <path d="M77.0598 100.719C79.8518 97.6725 80.5077 92.7485 78.9438 87.1105C83.8197 90.3405 88.7118 91.2375 92.4697 89.5205C98.5567 86.7415 98.5988 78.2545 94.6648 72.8385C90.4048 66.9825 77.4667 60.6565 60.5327 61.7695C54.2397 77.5275 56.2588 91.7906 60.5178 97.6476C64.4518 103.064 72.5318 105.648 77.0598 100.719Z" fill="#EA4695"/>
    <path d="M106.778 45.4896C104.742 41.8986 100.261 39.7526 94.4127 39.4946C98.9947 35.8566 101.361 31.4836 100.89 27.3776C100.125 20.7286 92.0677 18.0696 85.7017 20.1356C78.8117 22.3746 68.7987 32.7286 64.6277 49.1726C77.6657 60.0296 91.8557 62.5156 98.7407 60.2746C105.111 58.2086 110.064 51.3226 106.778 45.4896Z" fill="#EA4695"/>
</svg>
