<svg width="105" height="102" viewBox="0 0 105 102" fill="none" xmlns="http://www.w3.org/2000/svg">
    <path d="M62.0437 35.1009C62.0437 35.1009 81.8829 44.1269 65.5357 75.2069C65.5357 75.2069 86.5299 75.0789 85.2759 52.1229C84.8839 44.9319 76.5609 32.6909 62.0437 35.1009Z" fill="#EA4695"/>
    <path d="M66.479 32.8129C66.479 32.8129 43.8355 21.3979 23.3132 38.6079C23.3132 38.6079 28.1844 19.8929 44.8961 17.2049C51.5007 16.1429 61.8698 20.1169 66.479 32.8129Z" fill="#EA4695"/>
    <path d="M29.3855 38.9159C29.3855 38.9159 20.4291 66.2049 62.4359 76.8059C62.4359 76.8059 43.1083 90.3049 25.3548 72.3729C25.3548 72.3729 9.15026 57.5979 29.3855 38.9159Z" fill="#EA4695"/>
    <path d="M76.7664 30.92C76.7664 30.92 95.987 35.4029 90.617 69.1079C90.617 69.1079 109.725 55.5379 102.212 38.3149C99.163 31.3269 88.737 26.556 76.7664 30.92Z" fill="#EA4695"/>
    <path d="M86.6721 66.7639C86.6721 66.7639 78.4203 88.7329 48.7089 85.5679C48.7089 85.5679 58.9711 101.649 76.8357 95.2829C84.1361 92.6799 94.3001 82.1489 86.6721 66.7639Z" fill="#EA4695"/>
    <path d="M15.3797 57.9319C15.3797 57.9319 7.06051 30.2389 34.4012 15.9959C34.4012 15.9959 12.2629 10.9679 4.14701 28.6829C0.829014 35.9229 -0.688585 52.7079 15.3797 57.9319Z" fill="#EA4695"/>
    <path d="M45.3301 87.3029C45.3301 87.3029 17.6603 85.8469 6.98086 58.0989C6.98086 58.0989 -7.25544 78.5149 13.443 90.5669C20.2447 94.5279 34.5292 93.5139 45.3301 87.3029Z" fill="#EA4695"/>
    <path d="M72.8154 30.6749C72.8154 30.6749 63.5844 6.0799 33.6467 11.8629C33.6467 11.8629 44.9548 -6.3371 64.5465 2.3489C72.436 5.8449 77.2716 17.6329 72.8154 30.6749Z" fill="#EA4695"/>
    <path d="M35.4807 48.8049C35.4807 48.8049 51.2157 40.2789 62.4295 53.2489C62.4295 53.2489 66.6551 38.2079 53.2426 34.8159C53.2426 34.8159 38.9245 30.8439 35.4807 48.8049Z" fill="#EA4695"/>
    <path d="M44.0912 49.2479C44.0912 49.2479 49.9329 61.2409 65.6427 55.5499C65.6427 55.5499 64.622 66.3239 55.1457 67.1899C49.9015 67.6679 38.3271 64.3769 44.0912 49.2479Z" fill="#EA4695"/>
</svg>
