<svg width="113" height="110" viewBox="0 0 113 110" fill="none" xmlns="http://www.w3.org/2000/svg">
    <path d="M40.596 36.108C40.687 31.728 42.034 26.907 45.434 21.772C52.865 10.539 54.208 1 54.208 1C54.208 1 78.147 13.666 74.697 37.031C78.895 35.76 83.894 35.553 89.828 37.198C102.805 40.797 112.294 39.131 112.294 39.131C112.294 39.131 107.651 65.805 84.364 69.744C86.871 73.342 88.613 78.033 88.881 84.187C89.468 97.644 93.983 106.146 93.983 106.146C93.983 106.146 67.172 109.971 56.231 89.042C53.581 92.538 49.658 95.646 43.889 97.803C31.282 102.515 24.583 109.443 24.583 109.443C24.583 109.443 12.665 85.129 29.184 68.257C25.04 66.822 20.875 64.044 17.041 59.23C8.657 48.689 0 44.465 0 44.465C0 44.465 19.445 25.611 40.596 36.108Z" fill="#BECB31"/>
    <path d="M45.214 54.769C45.214 54.769 49.197 50.925 53.525 53.082C53.54 52.177 53.804 51.187 54.506 50.131C56.025 47.834 56.302 45.88 56.302 45.88C56.302 45.88 61.19 48.481 60.477 53.267C61.339 53 62.364 52.95 63.588 53.288C66.239 54.019 68.178 53.684 68.178 53.684C68.178 53.684 67.218 59.144 62.437 59.934C62.959 60.676 63.343 61.617 63.397 62.896C63.512 65.646 64.435 67.39 64.435 67.39C64.435 67.39 58.958 68.159 56.719 63.873C56.178 64.594 55.382 65.237 54.193 65.684C51.609 66.646 50.24 68.06 50.24 68.06C50.24 68.06 47.811 63.082 51.2 59.636C50.347 59.345 49.488 58.785 48.698 57.794C46.985 55.637 45.214 54.769 45.214 54.769ZM34.285 51.514C34.285 51.514 37.763 53.216 41.135 57.455C42.69 59.41 44.382 60.508 46.061 61.085C39.402 67.874 44.172 77.6559 44.172 77.6559C44.172 77.6559 46.861 74.8729 51.942 72.9739C54.277 72.0969 55.845 70.834 56.912 69.408C61.307 77.845 72.087 76.327 72.087 76.327C72.087 76.327 70.274 72.909 70.037 67.497C69.93 65.002 69.207 63.116 68.185 61.668C77.566 60.091 79.455 49.368 79.455 49.368C79.455 49.368 75.636 50.045 70.417 48.595C68.013 47.928 65.998 48.031 64.301 48.555C65.705 39.141 56.09 34.033 56.09 34.033C56.09 34.033 55.55 37.869 52.559 42.388C51.181 44.472 50.657 46.413 50.626 48.19C42.116 43.952 34.285 51.514 34.285 51.514Z" fill="white"/>
</svg>
