<svg width="180" height="180" viewBox="0 0 180 180" fill="none" xmlns="http://www.w3.org/2000/svg">
    <g clip-path="url(#clip0)">
        <rect width="180" height="180" rx="90" fill="white"/>
        <path d="M66.1921 46.3191C66.1921 35.1081 76.2847 25.8439 87.6504 25.8439C99.016 25.8439 108.933 34.9323 108.933 46.1433C108.933 57.3544 99.016 66.4427 87.6504 66.4427C76.2847 66.4427 66.1921 57.5302 66.1921 46.3191Z" fill="#D07D5B"/>
        <path d="M-0.7883 49.012H180.877V180.243H-0.7883V49.012Z" fill="#EDF5FA"/>
        <path d="M165.966 33.9238C172.494 32.6499 188.318 43.0806 188.318 43.0806L240.836 104.754L175.931 124.952C175.931 124.952 125.03 112.833 116.412 107.447C107.794 102.061 101.869 102.869 97.2902 101.253C92.7119 99.6368 86.5176 99.0982 81.9392 96.1358C77.3608 93.1733 95.1358 73.7826 100.253 69.7427C105.37 65.7031 108.332 70.012 111.295 67.5882C114.257 65.1643 117.489 50.6214 124.491 49.0055C131.493 47.3895 139.842 48.4669 144.151 45.7737C148.46 43.0806 154.924 36.0783 165.966 33.9238Z" fill="#F2B799"/>
        <path d="M-7.79466 32.6355C-7.79466 32.6355 4.91462 34.017 7.4012 40.0953C9.8878 46.1736 30.0568 62.751 38.6218 63.3035C47.1867 63.8562 46.3579 72.6974 51.3311 74.9077C56.3043 77.118 62.9351 78.7758 66.8032 80.9861C70.6712 83.1963 73.5852 88.3828 72.5783 89.6577C71.5712 90.9328 51.3311 97.0108 45.5291 101.708C39.7269 106.405 49.3971 110.549 50.5023 114.417C51.6074 118.285 20.8582 124.626 15.885 125.455C10.9118 126.284 -11.1101 121.6 -11.1101 121.6L-7.79466 32.6355Z" fill="#F4C6AC"/>
        <path d="M122.345 104.322C128.646 100.044 133.673 102.534 146.825 95.5041C150.746 93.4082 152.938 87.7715 155.863 80.4409C158.251 74.4562 159.961 73.0728 164.353 70.5813C170.08 67.3332 185.057 67.7431 205.655 69.3907C226.32 71.044 247.885 109.746 281.846 108.376L222.08 183.695C222.08 183.695 173.788 169.393 145.138 164.31C137.459 162.947 127.39 158.54 126.358 155.985C125.327 153.429 126.936 148.298 117.89 149.104C110.989 149.719 116.292 139.056 108.532 138.769C104.199 138.608 102.642 138.668 97.1637 139.533C94.9793 139.878 93.4166 139.231 93.5848 138.194C93.7529 137.157 95.9006 136.722 97.9117 135.129C99.8015 133.631 99.7103 132.875 103.483 128.347C108.254 122.622 115.083 109.252 122.345 104.322Z" fill="#C58D79"/>
        <path d="M109.892 163.919C111.015 162.571 105.059 159.247 98.8288 155.747C89.597 150.56 80.7337 141.098 73.6308 133.83C62.5724 122.515 37.3694 124.058 31.1971 119.943C25.0249 115.828 21.4246 117.886 18.0814 115.314C14.7381 112.742 14.4809 107.084 10.8805 105.541C7.28004 103.998 -0.435172 101.426 -0.435172 101.426L-1.72104 183.465C-1.72104 183.465 58.7147 185.008 69.2589 173.692C79.803 162.376 82.1175 170.092 89.0612 168.034C92.6993 166.956 95.589 165.087 100.089 164.637C104.989 164.147 108.77 165.268 109.892 163.919Z" fill="#D07D5B"/>
        <path d="M-6.34462 112.885C-6.34462 112.885 21.9999 139.13 33.8099 141.229C45.6202 143.329 53.4938 145.166 57.6928 149.89C61.8921 154.614 67.8837 174.819 67.8837 174.819C67.8837 174.819 64.2242 179.03 53.4459 180.132L-0.0830145 179.891L-6.34462 112.885Z" fill="#BA684A"/>
        <path d="M182.707 80.9499C182.707 80.9499 170.178 92.6439 167.672 97.0987C165.167 101.554 164.331 113.526 164.331 113.526C164.331 113.526 163.496 125.22 159.32 130.789C155.143 136.357 147.904 141.09 145.12 145.267C142.335 149.443 141.5 151.671 137.324 154.177C133.147 156.683 127.078 157.206 127.078 157.206C127.078 157.206 136.029 162.935 143.752 164.075C151.475 165.216 170.255 169.516 179.821 172.301C179.821 172.301 181.909 86.8982 182.707 80.9499Z" fill="#B9806F"/>
    </g>
    <defs>
        <clipPath id="clip0">
            <rect width="180" height="180" rx="90" fill="white"/>
        </clipPath>
    </defs>
</svg>
