<svg width="180" height="180" viewBox="0 0 180 180" fill="none" xmlns="http://www.w3.org/2000/svg">
    <g clip-path="url(#clip0)">
        <path d="M0 0H180V180H0V0Z" fill="#F9F2E8"/>
        <path d="M-0.820953 91.7628C-0.820953 91.7628 23.4886 78.1554 37.4351 78.0515C52.8949 77.9365 67.4861 93.3743 78.1738 99.2171C90 105.683 104.915 104.508 112.415 104.07C119.915 103.632 139.161 111.676 144.499 116.742C149.836 121.808 172.093 129.414 180 130.223V180H1.36495e-05L-0.820953 91.7628Z" fill="#ECA766"/>
        <path d="M37.4351 78.0515C37.4351 78.0515 54.8032 78.6725 52.6498 96.8208C50.4967 114.969 14.5076 126.043 14.5076 126.043C14.5076 126.043 38.6116 133.059 59.7247 122.351C69.0826 117.606 82.9143 122.559 84.6403 133.733C85.5422 139.572 82.8909 139.357 82.5376 142.706C82.1842 146.055 90.3178 140.951 95.7138 144.499C99.0053 146.663 94.1922 154.154 99.0974 153.419C112.376 151.43 128.012 171.207 141.854 180H1.35899e-05L-0.820953 91.7627C-0.820953 91.7627 21.0384 80.8596 37.4351 78.0515Z" fill="#E89551"/>
        <path d="M100.48 41.0784C100.48 29.8675 110.573 20.6033 121.938 20.6033C133.304 20.6033 143.221 29.6917 143.221 40.9027C143.221 52.1138 133.304 61.2021 121.938 61.2021C110.573 61.2021 100.48 52.2896 100.48 41.0784Z" fill="#D07D5B"/>
    </g>
    <defs>
        <clipPath id="clip0">
            <rect width="180" height="180" rx="90" fill="white"/>
        </clipPath>
    </defs>
</svg>
