<svg width="180" height="180" viewBox="0 0 180 180" fill="none" xmlns="http://www.w3.org/2000/svg">
    <g clip-path="url(#clip0)">
        <path d="M-4.92188 -1.99951H181.699V189.156H-4.92188V-1.99951Z" fill="#C68D79"/>
        <path d="M180.295 48.055C180.295 48.055 178.569 47.2605 174.61 47.2605C170.649 47.2605 168.229 34.4996 163.389 32.5195C163.389 32.5195 157.888 33.3996 153.708 35.3798C153.708 35.3798 152.388 40.8802 149.308 41.3201C146.228 41.7601 144.908 47.9205 141.167 49.0206C137.427 50.1206 141.607 58.0411 138.087 59.1412C134.567 60.2412 128.847 65.0815 125.106 64.6416C121.366 64.2016 113.177 41.8429 109.045 40.2201C104.914 38.5973 100.245 43.0802 96.7245 42.8602C93.2043 42.6402 88.804 40.44 88.804 40.44L78.4635 43.7403L67.6668 33.3644L37.5511 42.1788L-0.615265 71.2351L0.28174 190.536L180.051 189.819L180.295 48.055Z" fill="#F4CFBD"/>
        <path d="M182.548 75.3882L163.577 77.1736C163.577 77.1736 155.319 86.7705 153.087 88.556C150.856 90.3415 131.662 91.0111 125.413 93.9124C119.163 96.8138 115.146 98.3761 115.146 98.3761L-0.175873 148.093V188.5L181.089 188.785L182.548 75.3882Z" fill="#E3AFA1"/>
        <path d="M0.208796 67.1924C0.208796 67.1924 1.23113 63.8842 4.40903 63.2486C7.58695 62.6129 9.81148 62.7718 12.5127 60.8651C15.2139 58.9584 15.8495 57.2105 18.233 55.6216C20.6164 54.0327 22.682 56.8928 25.5421 54.986C28.4023 53.0793 39.1843 43.374 39.1843 43.374C39.1843 43.374 50.3298 46.2468 51.7599 48.4713C53.1899 50.6958 56.5268 60.0706 60.9758 61.6597C65.4248 63.2486 73.0518 65.7909 77.0242 69.9223C80.9965 74.0535 80.202 82.7926 82.7443 83.2693C85.2867 83.746 108.325 95.5292 113.774 99.2206C119.224 102.912 128.892 113.986 135.747 115.744C142.603 117.502 154.38 129.103 154.38 129.103L-1.01064 89.9042L0.208796 67.1924Z" fill="#E5A288"/>
        <path d="M180.138 202.456L180.387 131.297C180.387 131.297 157.16 124.241 142.187 118.813C122.212 111.572 102.023 103.733 72.0261 96.0919C45.56 89.3505 -0.131729 82.8589 -0.131729 82.8589L0.617314 203.205L180.138 202.456Z" fill="#DA896B"/>
        <path d="M-3.33995 93.1641L17.8829 96.9093C17.8829 96.9093 39.6052 110.142 59.8294 108.395C76.4738 106.956 91.7887 120.629 123.998 124.374C143.993 126.699 156.956 141.852 179.926 137.358L180.425 199.028L0.155585 198.779L-3.33995 93.1641Z" fill="#D07D5B"/>
        <path d="M-0.263718 78.1348C-0.263718 78.1348 6.86887 100.698 13.3086 111.496C19.661 122.147 56.4045 139.261 69.3016 185.406L70.7268 199.252L0.0738456 197.827L-0.263718 78.1348Z" fill="#C46E55"/>
        <path d="M183.235 163.002C183.235 163.002 154.932 155.061 147.602 154.247C140.272 153.432 95.2741 160.558 89.7768 163.205C84.2792 165.852 42.5391 191.1 42.5391 191.1L181.401 191.304L183.235 163.002Z" fill="#BC694B"/>
        <path d="M7.9101 3.15649C7.9101 -0.520845 11.2206 -3.55957 14.9486 -3.55957C18.6767 -3.55957 21.9295 -0.578504 21.9295 3.09882C21.9295 6.77614 18.6767 9.75722 14.9486 9.75722C11.2206 9.75722 7.9101 6.8338 7.9101 3.15649Z" fill="#F4CFBD"/>
    </g>
    <defs>
        <clipPath id="clip0">
            <rect width="180" height="180" rx="90" fill="white"/>
        </clipPath>
    </defs>
</svg>
