<svg width="227" height="290" viewBox="0 0 227 290" fill="none" xmlns="http://www.w3.org/2000/svg">
    <path d="M218.267 150.346C236.596 129.297 132.697 116.909 199.268 84.1829C265.839 51.4579 195.941 -41.3864 158.51 22.3558C122.204 84.1829 110.725 44.5769 83.5411 33.5442C56.3572 22.5108 24.4092 41.8509 25.8192 66.1369C27.2302 90.4219 67.3552 93.6969 59.2832 125.624C51.2102 157.551 -7.15077 174.159 1.38222 195.92C9.91422 217.681 59.2832 195.92 42.9022 249.366C26.5222 302.813 87.4151 295.995 105.534 269.436C123.652 242.878 66.0342 193.998 105.534 150.346C145.033 106.694 199.938 171.395 218.267 150.346Z" fill="#79E0CE" fill-opacity="0.209596"/>
</svg>
