<svg width="69" height="249" viewBox="0 0 69 249" fill="none" xmlns="http://www.w3.org/2000/svg">
    <path d="M-178.5 0.65416V107.485L-71.6694 0.65416H-178.5ZM-60.1083 0.65416L-178.5 119.046V132.432L-46.7218 0.65416H-60.1083ZM-35.1691 0.65416L-178.5 143.985V156.991L-22.1629 0.65416H-35.1691ZM-10.6186 0.65416L-178.5 168.544V181.93L2.76797 0.65416H-10.6186ZM14.3291 0.65416L-178.5 193.483V205.72L26.5663 0.65416H14.3291ZM38.1274 0.65416L-178.5 217.273V230.66L51.514 0.65416H38.1274ZM58.5284 0.65416L60.7933 2.91917L-176.709 240.421L-178.5 238.629V248.432H-168.705L-170.21 246.928L67.3007 9.41816L68.3233 10.4402V0.65416H58.5284ZM68.3233 19.9481L-160.161 248.432H-146.775L68.3233 33.3341V19.9481ZM68.3233 44.8961L-135.214 248.432H-122.596L68.3233 57.5131V44.8961ZM68.3233 69.0661L-111.043 248.432H-97.6566L68.3233 82.4521V69.0661ZM68.3233 94.013L-86.1039 248.432H-75.0076L68.3233 105.101V94.013ZM68.3233 116.646L-63.4549 248.432H-50.0685L68.3233 130.032V116.646ZM68.3233 141.593L-38.5158 248.432H68.3233V141.593Z" fill="#B3BFCC" fill-opacity="0.112463"/>
</svg>
