<svg width="180" height="109" viewBox="0 0 180 109" fill="none" xmlns="http://www.w3.org/2000/svg">
    <path d="M91.3001 0.000177857C90.9133 -0.00508347 90.5267 0.106382 90.1919 0.334958C73.7185 11.5911 63.666 30.214 63.666 50.537C63.666 70.2787 73.153 88.4283 88.8582 99.7889C89.5153 100.264 90.3992 100.276 91.0688 99.8201C107.542 88.5628 117.601 69.9455 117.601 49.6231C117.601 29.8812 108.108 11.7267 92.4024 0.365548C92.0739 0.127814 91.6871 0.00524432 91.3001 0.000177857ZM91.2453 4.32363C105.295 15.0109 113.758 31.5999 113.758 49.6231C113.758 68.1936 104.78 85.2208 90.0153 95.837C75.9635 85.1487 67.5086 68.5619 67.5086 50.537C67.5086 31.9686 76.4836 14.9392 91.2453 4.32363ZM147.586 48.9898C139.049 49.0073 130.456 50.8293 122.375 54.5376C104.431 62.7706 91.8923 78.9676 88.1154 97.9805C87.9574 98.7756 88.3156 99.5843 89.0104 100.001C106.111 110.28 127.226 111.656 145.698 103.181C163.641 94.9485 176.186 78.7514 179.962 59.7385C180.122 58.9434 179.764 58.1348 179.068 57.7158C169.449 51.9342 158.56 48.9683 147.586 48.9898ZM147.592 52.8325C157.421 52.813 167.164 55.3774 175.878 60.3348C172.024 77.5627 160.478 92.1697 144.096 99.6856C127.22 107.428 107.999 106.373 92.1953 97.3843C96.0489 80.1544 107.599 65.5493 123.982 58.0334C131.553 54.559 139.596 52.8481 147.592 52.8325ZM32.4148 48.9605C21.4394 48.9391 10.5508 51.9049 0.931965 57.6866C0.237081 58.1036 -0.121076 58.9123 0.0369582 59.7073C3.81381 78.7202 16.3527 94.9173 34.2964 103.15C52.7679 111.625 73.8896 110.251 90.9897 99.9721C91.6845 99.5531 92.0427 98.7444 91.8847 97.9494C88.1078 78.9384 75.5629 62.7394 57.6192 54.5064C49.5378 50.8001 40.951 48.9761 32.4148 48.9605ZM32.4087 52.8091C40.4048 52.8228 48.4468 54.5298 56.0176 58.0022C72.3998 65.5182 83.9446 80.1251 87.7988 97.3531C71.9947 106.342 52.7804 107.398 35.904 99.6544C19.5208 92.1385 7.97045 77.5335 4.11682 60.3036C12.8311 55.3482 22.5806 52.7896 32.4087 52.8091ZM140.479 14.274C120.565 15.493 102.383 26.3285 91.964 43.7772C81.8429 60.7284 80.6866 81.1794 88.3467 98.9841C88.6673 99.7304 89.4191 100.192 90.2283 100.142C110.143 98.9237 128.325 88.0931 138.743 70.645C148.864 53.6938 150.022 33.237 142.361 15.4309C142.04 14.6861 141.288 14.2243 140.479 14.274ZM139.333 18.2381C145.92 34.6178 144.684 53.195 135.443 68.6711C125.924 84.6129 109.49 94.6308 91.3732 96.178C84.7877 79.7978 86.0239 61.2194 95.2644 45.7453C104.783 29.8021 121.218 19.7849 139.333 18.2381ZM140.479 14.274C120.565 15.493 102.383 26.3285 91.964 43.7772C81.8429 60.7284 80.6866 81.1794 88.3467 98.9841C88.6673 99.7304 89.4191 100.192 90.2283 100.142C110.143 98.9237 128.325 88.0931 138.743 70.645C148.864 53.6938 150.022 33.237 142.361 15.4309C142.04 14.6861 141.288 14.2243 140.479 14.274ZM139.333 18.2381C145.92 34.6178 144.684 53.195 135.443 68.6711C125.924 84.6129 109.49 94.6308 91.3732 96.178C84.7877 79.7978 86.0239 61.2194 95.2644 45.7453C104.783 29.8021 121.218 19.7849 139.333 18.2381ZM39.5213 14.2434C38.7118 14.1939 37.96 14.6616 37.6394 15.4065C29.9795 33.2126 31.1357 53.6626 41.2567 70.6138C51.6753 88.0639 69.8512 98.8925 89.7655 100.112C90.575 100.161 91.3328 99.6992 91.6534 98.9548C99.3135 81.1482 98.1572 60.6972 88.0361 43.7479C77.6175 26.2981 59.4356 15.4626 39.5213 14.2434ZM40.6538 18.2137C58.7726 19.759 75.2094 29.776 84.7297 45.72C93.9689 61.1941 95.2163 79.7686 88.633 96.1469C70.5143 94.6016 54.0774 84.5856 44.5571 68.6418C35.3182 53.1677 34.0717 34.5915 40.6538 18.2137ZM39.5213 14.2434C38.7118 14.1939 37.96 14.6616 37.6394 15.4065C29.9795 33.2126 31.1357 53.6626 41.2567 70.6138C51.6753 88.0639 69.8512 98.8925 89.7655 100.112C90.575 100.161 91.3328 99.6992 91.6534 98.9548C99.3135 81.1482 98.1572 60.6972 88.0361 43.7479C77.6175 26.2981 59.4356 15.4626 39.5213 14.2434ZM40.6538 18.2137C58.7726 19.759 75.2094 29.776 84.7297 45.72C93.9689 61.1941 95.2163 79.7686 88.633 96.1469C70.5143 94.6016 54.0774 84.5856 44.5571 68.6418C35.3182 53.1677 34.0717 34.5915 40.6538 18.2137ZM91.3001 0.000177857C90.9133 -0.00508347 90.5267 0.106382 90.1919 0.334958C73.7185 11.5911 63.666 30.214 63.666 50.537C63.666 70.2787 73.153 88.4283 88.8582 99.7889C89.5153 100.264 90.3992 100.276 91.0688 99.8201C107.542 88.5628 117.601 69.9455 117.601 49.6231C117.601 29.8812 108.108 11.7267 92.4024 0.365548C92.0739 0.127814 91.6871 0.00524432 91.3001 0.000177857Z" fill="#E9DBEB"/>
</svg>
